<svg viewBox="0 0 470 470" fill="none" xmlns="http://www.w3.org/2000/svg">
<path d="M173.698 217.47L160.566 230.602C158.149 233.019 158.149 236.938 160.566 239.356L173.698 252.487C176.115 254.905 180.035 254.905 182.452 252.487L195.584 239.356C198.001 236.938 198.001 233.019 195.584 230.602L182.452 217.47C180.035 215.053 176.115 215.053 173.698 217.47Z" stroke="white" stroke-width="12.7245" stroke-linecap="round" stroke-linejoin="round"/>
<path d="M230.601 160.567L217.469 173.699C215.052 176.116 215.052 180.036 217.469 182.453L230.601 195.585C233.018 198.002 236.938 198.002 239.355 195.585L252.487 182.453C254.904 180.036 254.904 176.116 252.487 173.699L239.355 160.567C236.938 158.15 233.018 158.15 230.601 160.567Z" stroke="white" stroke-width="12.7245" stroke-linecap="round" stroke-linejoin="round"/>
<path d="M230.601 274.373L217.47 287.505C215.053 289.922 215.053 293.842 217.47 296.259L230.601 309.391C233.019 311.808 236.938 311.808 239.356 309.391L252.487 296.259C254.905 293.842 254.905 289.922 252.487 287.505L239.356 274.373C236.938 271.956 233.019 271.956 230.601 274.373Z" stroke="white" stroke-width="12.7245" stroke-linecap="round" stroke-linejoin="round"/>
<path d="M291.881 213.093L278.749 226.225C276.428 228.546 275.123 231.695 275.123 234.979C275.123 238.262 276.428 241.411 278.749 243.733L291.881 256.865" stroke="white" stroke-width="12.7245" stroke-linecap="round" stroke-linejoin="round"/>
<path d="M313.768 234.979L313.811 235.022" stroke="white" stroke-width="12.7245" stroke-linecap="round" stroke-linejoin="round"/>
<path d="M213.092 213.093L226.224 226.224C228.546 228.546 229.85 231.695 229.85 234.979C229.85 238.262 228.546 241.411 226.224 243.733L213.092 256.864" stroke="white" stroke-width="12.7245" stroke-linecap="round" stroke-linejoin="round"/>
<path d="M195.583 274.373L195.626 274.331" stroke="white" stroke-width="12.7245" stroke-linecap="round" stroke-linejoin="round"/>
<path d="M195.583 195.584L195.626 195.542" stroke="white" stroke-width="12.7245" stroke-linecap="round" stroke-linejoin="round"/>
<path d="M252.486 252.488L252.529 252.53" stroke="white" stroke-width="12.7245" stroke-linecap="round" stroke-linejoin="round"/>
<path d="M252.486 217.47L256.864 213.093" stroke="white" stroke-width="12.7245" stroke-linecap="round" stroke-linejoin="round"/>
<path d="M274.373 195.584L274.416 195.627" stroke="white" stroke-width="12.7245" stroke-linecap="round" stroke-linejoin="round"/>
<path d="M274.373 274.373L269.996 269.996" stroke="white" stroke-width="12.7245" stroke-linecap="round" stroke-linejoin="round"/>
<path d="M237.396 356.197L237.396 430.73L311.875 430.73L430.732 312.432L430.731 237.395L356.017 237.395L237.396 356.197Z" fill="white" stroke="white" stroke-width="2.05071"/>
<path d="M232.605 356.197L232.605 430.73L158.125 430.73L39.2694 312.432L39.2695 237.395L113.984 237.395L232.605 356.197Z" fill="white" stroke="white" stroke-width="2.05071"/>
<path d="M237.396 113.803L237.396 39.27L311.875 39.2703L430.732 157.568L430.731 232.605L356.017 232.605L237.396 113.803Z" fill="white" stroke="white" stroke-width="2.05071"/>
<path d="M232.605 113.803L232.605 39.27L158.125 39.2703L39.2694 157.568L39.2695 232.605L113.984 232.605L232.605 113.803Z" fill="white" stroke="white" stroke-width="2.05071"/>
</svg>
