<svg viewBox="0 0 470 470" fill="none" xmlns="http://www.w3.org/2000/svg">
<path d="M173.698 217.47L160.567 230.601C158.149 233.019 158.149 236.938 160.567 239.356L173.698 252.487C176.116 254.905 180.035 254.905 182.453 252.487L195.584 239.356C198.001 236.938 198.001 233.019 195.584 230.601L182.453 217.47C180.035 215.052 176.116 215.052 173.698 217.47Z" stroke="#191919" stroke-width="12.7245" stroke-linecap="round" stroke-linejoin="round"/>
<path d="M230.601 160.567L217.47 173.699C215.053 176.116 215.053 180.036 217.47 182.453L230.601 195.585C233.019 198.002 236.938 198.002 239.356 195.585L252.487 182.453C254.905 180.036 254.905 176.116 252.487 173.699L239.356 160.567C236.938 158.15 233.019 158.15 230.601 160.567Z" stroke="#191919" stroke-width="12.7245" stroke-linecap="round" stroke-linejoin="round"/>
<path d="M230.602 274.373L217.47 287.505C215.053 289.922 215.053 293.842 217.47 296.259L230.602 309.391C233.019 311.808 236.939 311.808 239.356 309.391L252.488 296.259C254.905 293.842 254.905 289.922 252.488 287.505L239.356 274.373C236.939 271.956 233.019 271.956 230.602 274.373Z" stroke="#191919" stroke-width="12.7245" stroke-linecap="round" stroke-linejoin="round"/>
<path d="M291.881 213.093L278.75 226.225C276.428 228.546 275.124 231.695 275.124 234.979C275.124 238.262 276.428 241.411 278.75 243.733L291.881 256.865" stroke="#191919" stroke-width="12.7245" stroke-linecap="round" stroke-linejoin="round"/>
<path d="M313.769 234.979L313.811 235.022" stroke="#191919" stroke-width="12.7245" stroke-linecap="round" stroke-linejoin="round"/>
<path d="M213.093 213.093L226.224 226.224C228.546 228.546 229.851 231.695 229.851 234.979C229.851 238.262 228.546 241.411 226.224 243.733L213.093 256.864" stroke="#191919" stroke-width="12.7245" stroke-linecap="round" stroke-linejoin="round"/>
<path d="M195.584 274.373L195.627 274.331" stroke="#191919" stroke-width="12.7245" stroke-linecap="round" stroke-linejoin="round"/>
<path d="M195.584 195.584L195.627 195.542" stroke="#191919" stroke-width="12.7245" stroke-linecap="round" stroke-linejoin="round"/>
<path d="M252.487 252.488L252.53 252.53" stroke="#191919" stroke-width="12.7245" stroke-linecap="round" stroke-linejoin="round"/>
<path d="M252.487 217.47L256.864 213.093" stroke="#191919" stroke-width="12.7245" stroke-linecap="round" stroke-linejoin="round"/>
<path d="M274.374 195.584L274.416 195.627" stroke="#191919" stroke-width="12.7245" stroke-linecap="round" stroke-linejoin="round"/>
<path d="M274.373 274.373L269.996 269.996" stroke="#191919" stroke-width="12.7245" stroke-linecap="round" stroke-linejoin="round"/>
<path d="M236.371 431.756L312.299 431.755L431.757 312.858L431.757 236.37L355.591 236.37L236.37 355.773L236.371 431.756Z" fill="#191919"/>
<path d="M233.63 431.756L157.702 431.755L38.2441 312.858L38.2441 236.37L114.41 236.37L233.63 355.773L233.63 431.756Z" fill="#191919"/>
<path d="M236.371 38.2446L312.299 38.2449L431.757 157.142L431.757 233.63L355.591 233.63L236.37 114.227L236.371 38.2446Z" fill="#191919"/>
<path d="M233.63 38.2446L157.702 38.2449L38.2441 157.142L38.2441 233.63L114.41 233.63L233.63 114.227L233.63 38.2446Z" fill="#191919"/>
</svg>
